<?xml version="1.0" encoding="UTF-8"?>
<!DOCTYPE svg PUBLIC "-//W3C//DTD SVG 1.1//EN" "http://www.w3.org/Graphics/SVG/1.1/DTD/svg11.dtd">
<!-- Creator: CorelDRAW 2017 -->
<svg xmlns="http://www.w3.org/2000/svg" xml:space="preserve" width="175.934mm" height="33.5954mm" version="1.1" style="shape-rendering:geometricPrecision; text-rendering:geometricPrecision; image-rendering:optimizeQuality; fill-rule:evenodd; clip-rule:evenodd"
viewBox="0 0 17618.48 3364.33"
 xmlns:xlink="http://www.w3.org/1999/xlink">
 <defs>
  <style type="text/css">
   <![CDATA[
    .fil1 {fill:#2B2A29;fill-rule:nonzero}
    .fil0 {fill:#E31E25;fill-rule:nonzero}
   ]]>
  </style>
 </defs>
 <g id="Warstwa_x0020_1">
  <metadata id="CorelCorpID_0Corel-Layer"/>
  <path class="fil0" d="M17586.99 2059.25c-55.85,125.68 -188.47,202.62 -306.97,202.62 -35.18,0 -66.44,-6.97 -97.82,-20.91 -83.83,-34.87 -122.02,-115.29 -122.02,-209.45 0,-55.93 13.85,-118.67 41.65,-181.53 55.82,-129.21 171.06,-209.49 279.31,-209.49 31.37,0 62.92,7.24 90.69,20.91 90.76,38.49 146.65,136.27 146.65,247.8 0,49.03 -10.57,101.4 -31.48,150.04zm-1612.27 -1072.69c2.82,-264.34 308.49,-440.06 472.72,-342.11 54.09,32.26 165.1,263.33 -236.17,426.11 -86.73,35.37 -238.68,101.61 -236.56,-84zm834.56 131.79c92.56,-86.04 159.37,-200.97 169.04,-334.17 8.06,-110.95 -18.34,-243.57 -79.98,-337.61 -228.86,-348.09 -866.41,-188.24 -1106.76,23.66 -223.34,196.86 -383.56,479.3 -394.54,781.08 -7.81,215.81 -8.27,493.22 123.69,676.69 88.71,123.52 251.29,180.86 395.56,208.11 80.91,15.21 167.07,17.6 248.81,6.65 80.12,-10.44 164.87,-35.49 237.55,-71 204.3,-99.38 374.65,-266.16 494.73,-457.63 13.57,-21.36 24.95,-43.95 38.22,-65.41 25.83,-42.16 34.13,-82.02 29.15,-116.75 -5.59,-41.58 -34.17,-69.13 -86.06,-61.95 -31.09,4.33 -71.08,20.55 -122.58,55.88 -123.2,85 -245.61,179.84 -409.67,208.79 -72.24,12.84 -152.05,20.49 -211.33,-24.64 -43.1,-32.84 -97.19,-124.41 -27.17,-141.56 332.08,-81.86 561.83,-220.81 701.34,-350.15zm-9678.94 818.53c-219.81,108.3 -513.1,192 -1008.73,192 -90.83,0 -188.58,-3.42 -289.76,-10.54 -233.9,-13.8 -394.43,-94.14 -394.43,-254.61 0,-122.43 97.72,-293.55 335.19,-509.72 177.88,-167.49 247.72,-286.17 247.72,-366.66 0,-239.91 -404.19,-150.76 -544.73,-186.86 -50.9,-12.93 -118.38,-47.02 -118.38,-109.6 0,-48.9 52.14,-108.33 177.91,-150.08 356.04,-118.95 785.48,-157.22 1130.92,-167.6 7.06,0 13.88,0 21.02,0 156.99,0 328.02,62.75 328.02,198.89 0,62.83 -34.83,143.3 -129.15,241.01 -282.62,293.11 -467.64,516.44 -467.64,694.43 0,20.91 3.45,41.86 10.31,59.48 31.47,125.41 199.07,160.39 352.53,160.39 62.54,0 124.93,-4.83 186.89,-13.24 81.65,-10.95 274.11,-58.49 274.11,86.66 0,45.21 -35.08,97.52 -111.81,136.02zm7991.5 0c-219.95,108.3 -513.04,192 -1008.77,192 -90.72,0 -188.44,-3.42 -289.72,-10.54 -233.83,-13.8 -394.33,-94.14 -394.33,-254.61 0,-122.43 97.72,-293.55 335.09,-509.72 177.94,-167.49 247.68,-286.17 247.68,-366.66 0,-239.91 -404.16,-150.76 -544.51,-186.86 -51.02,-12.93 -118.6,-47.02 -118.6,-109.6 0,-48.9 52.31,-108.33 178.05,-150.08 356,-118.95 785.34,-157.22 1130.81,-167.6 7.14,0 13.85,0 21.06,0 156.99,0 328.02,62.75 328.02,198.89 0,62.83 -34.97,143.3 -129.22,241.01 -282.69,293.11 -467.47,516.44 -467.47,694.43 0,20.91 3.21,41.86 10.28,59.48 31.33,125.41 198.93,160.39 352.61,160.39 62.53,0 124.81,-4.83 186.71,-13.24 81.47,-10.95 274.11,-58.49 274.11,86.66 0,45.21 -35.01,97.52 -111.81,136.02zm-2449.66 177.99c-48.89,7.04 -111.67,14.01 -177.9,14.01 -101.32,0 -199.08,-17.36 -219.85,-80.25 -3.61,-10.38 -3.61,-17.45 -3.61,-28.08 0,-55.86 55.89,-111.34 146.65,-167.26 76.81,-45.51 198.93,-157.31 198.93,-307.37 0,-115.02 -76.7,-254.85 -310.5,-397.97 -188.65,-111.57 -261.95,-237.22 -261.95,-355.83 0,-279.29 387.51,-530.59 635.26,-576.09 38.47,-6.97 73.34,-10.45 101.25,-10.45 108.07,0 153.57,41.99 153.57,97.67 0,38.5 -24.51,80.34 -62.81,118.62 -59.35,56.03 -216.46,143.2 -216.46,275.86 0,97.77 83.84,219.9 355.97,373.49 226.98,125.68 317.74,282.79 317.74,436.33 0,282.8 -310.6,551.5 -656.29,607.31zm-791.67 -1218.14c-97.82,408.3 -321.2,848.24 -541.01,1082.14 -115.27,118.62 -233.9,170.98 -352.61,170.98 -167.56,0 -338.54,-108.19 -492.12,-282.96 -90.79,-104.58 -163.99,-142.83 -230.41,-142.83 -111.6,0 -192,118.57 -268.77,230.35 -55.82,87.25 -143.04,153.64 -261.78,153.64 -76.77,0 -167.56,-27.95 -265.17,-97.85 -275.81,-188.58 -436.34,-719.12 -436.34,-1127.47 0,-31.51 0,-62.98 3.32,-94.12 10.56,-153.66 104.92,-230.53 199,-230.53 76.8,0 157.13,48.88 188.68,153.66 45.33,143.11 104.58,307.13 226.63,499.22 48.9,73.41 104.75,118.61 167.67,118.61 87.29,0 177.98,-97.77 261.81,-338.65 62.82,-181.4 136.08,-324.5 303.65,-345.52 6.95,0 13.95,0 20.91,0 184.94,0 303.68,279.25 425.81,499.25 62.92,111.61 150.07,170.85 240.83,170.85 69.88,0 143.22,-34.85 205.96,-101.26 174.63,-184.88 254.82,-307.15 328.1,-425.63 35.01,-55.89 108.27,-94.22 174.69,-94.22 59.14,0 111.57,34.71 111.57,125.37 0,21.09 -3.49,45.66 -10.42,76.98zm-3633.59 -171.05c-17.48,-6.97 -38.36,-10.25 -55.86,-10.25 -108.17,0 -230.41,104.33 -286.3,258 -24.4,59.4 -34.94,118.86 -34.94,171.22 0,115.16 45.5,209.38 125.63,240.96 20.99,6.84 38.36,10.21 59.38,10.21 108.21,0 226.88,-104.75 286.3,-258.14 24.24,-59.45 34.8,-118.82 34.8,-171.12 0,-115.34 -45.35,-209.42 -129.01,-240.88zm422.31 949.32c-174.56,254.91 -460.68,405.1 -733.09,405.1 -132.62,0 -261.67,-38.43 -376.88,-115.4 -188.59,-132.42 -279.34,-352.41 -279.34,-586.29 0,-191.86 62.84,-394.31 181.44,-565.26 174.63,-251.54 471.45,-398.06 750.48,-398.06 143.32,0 279.34,34.88 394.43,115.13 178.05,125.46 258.4,324.64 258.4,544.55 0,202.45 -66.38,415.28 -195.44,600.24zm-3514.5 101.42c-3.58,230.36 -101.39,310.5 -212.99,310.5 -97.79,0 -206,-59.19 -275.77,-129.02 -80.33,-76.8 -164.1,-125.63 -265.28,-125.63 -59.28,0 -125.7,17.43 -195.48,52.28 -121.98,55.82 -338.54,153.69 -537.52,153.69 -111.74,0 -216.4,-31.46 -296.75,-111.88 -111.64,-108.19 -157.11,-240.71 -157.11,-380.44 0,-495.74 597.05,-1085.46 1029.79,-1141.31 17.41,-3.35 31.37,-3.35 45.39,-3.35 83.63,0 118.71,38.27 118.71,87.19 0,55.85 -42.04,122.08 -104.68,163.94 -265.28,181.43 -415.53,464.16 -415.53,659.71 0,101.16 38.36,177.92 118.71,209.36 28.01,10.66 52.45,14.08 77.01,14.08 149.93,0 279.1,-167.62 362.89,-376.96 87.19,-212.94 181.42,-380.51 296.65,-380.51 59.45,0 125.63,48.69 195.47,160.67 122.23,191.78 216.5,450.13 216.5,802.55 0,10.77 0,24.5 0,35.12zm-2339.65 -214.38c52.72,-96.88 106.12,-192.52 143.86,-295.58 106.81,-292.64 161.87,-706.11 -38.02,-976.11 -106.53,-143.83 -326.09,-252.4 -511.64,-280.76 -247.98,-37.88 -529.02,37.08 -696.28,214.39 -98.73,104.53 -178.38,142.76 -250.47,142.76 -56.51,0 -212.04,-157.43 -265.79,-190.17 -82.11,-49.95 -170.25,-96.6 -266.37,-119.62 -776.6,-185.05 -1071.27,687.01 -868,1268.89 101.26,289.91 537.79,782.5 795.41,975.84 109.14,82.12 646.97,498.6 756.54,281.22 81.66,-162.08 -202.58,-325.61 -299.94,-405.9 -165.74,-136.65 -354.59,-310.84 -466.85,-494.94 -106.22,-174.43 -446.23,-889.04 97.5,-889.04 94.99,0 225.12,65.85 316.33,306.81 68.34,181.51 147.97,324.56 330.15,345.74 7.6,0 15.23,0 22.88,0 201,0 330.06,-279.33 462.86,-499.23 110.26,-182.51 255.2,-101.05 316.71,65.89 76.45,207.9 -8.86,442.27 -118.17,621.71 -54.06,88.7 -120.64,169.74 -194.61,242.47 -62.13,61.17 -186.59,145.14 -181.96,245.71 10.74,228.47 441.02,-32.77 494.31,-71.55 177.82,-129.48 316.71,-295.64 421.53,-488.52z"/>
  <path class="fil1" d="M16824.37 3353.01l0 -495.01 48.47 0 0 495.01 -48.47 0zm63.91 -636.3c0,22.7 -15.44,42.3 -41.27,42.3 -22.64,0 -38.11,-19.6 -38.11,-42.3 0,-22.66 17.6,-43.29 40.28,-43.29 23.66,0 39.11,19.6 39.11,43.29zm-525.93 379.5l2.01 0c12.44,-15.45 33.03,-38.15 48.54,-54.65l174.28 -183.57 59.74 0 -200.02 205.21 227.9 289.8 -59.85 0 -202.05 -259.86 -50.55 53.62 0 206.24 -48.51 0 0 -732.16 48.51 0 0 475.37zm-505.33 191.79c26.78,16.51 66.98,34.09 111.35,34.09 78.36,0 115.48,-42.34 115.48,-93.88 0,-54.68 -33,-83.52 -104.22,-112.43 -81.43,-30.91 -125.73,-75.25 -125.73,-135.07 0,-71.14 55.68,-134.03 152.62,-134.03 45.36,0 83.45,13.39 109.31,30.91l-19.64 40.23c-16.46,-12.35 -48.44,-29.91 -97.9,-29.91 -62.95,0 -95.95,40.22 -95.95,85.59 0,51.57 35.08,74.25 102.1,102.09 80.47,30.95 127.89,71.18 127.89,146.42 0,84.56 -66.06,142.32 -167.07,142.32 -48.44,0 -92.84,-14.43 -125.84,-35.03l17.6 -41.29zm-249.67 -667.16l48.43 0 0 732.16 -48.43 0 0 -732.16zm-591.96 485.69c0,123.75 79.31,216.55 180.46,216.55 103.09,0 184.52,-92.8 184.52,-219.65 0,-90.74 -51.54,-216.57 -181.41,-216.57 -125.88,0 -183.57,113.44 -183.57,219.67zm414.51 -6.19c0,185.61 -126.83,263.98 -237.16,263.98 -127.92,0 -226.88,-99.98 -226.88,-254.68 0,-170.2 111.36,-262.96 234.12,-262.96 137.11,0 229.92,102.09 229.92,253.67zm-915.81 -87.65c24.81,7.2 54.66,10.3 88.71,10.3 123.73,0 199,-60.86 199,-171.18 0,-109.3 -79.38,-157.76 -189.71,-157.76 -45.43,0 -79.41,4.14 -98,8.28l0 310.36zm-48.43 -346.49c40.2,-8.27 89.73,-13.41 148.51,-13.41 82.46,0 145.38,20.63 183.5,58.78 33.03,31.98 53.63,77.35 53.63,136.14 0,59.78 -17.48,104.12 -48.44,138.17 -44.4,51.58 -119.65,78.35 -204.23,78.35 -30.94,0 -59.74,-1.03 -84.54,-8.25l0 297.02 -48.43 0 0 -686.81zm-507.52 394.93c1.09,-69.04 -27.81,-174.27 -147.43,-174.27 -109.34,0 -156.75,98.02 -164.98,174.27l312.41 0zm-315.52 39.22c0,158.82 86.62,220.66 188.69,220.66 72.17,0 109.31,-14.45 137.15,-27.83l12.36 39.15c-18.55,10.32 -69.1,32 -155.72,32 -142.26,0 -230.91,-104.13 -230.91,-249.56 0,-165 94.78,-268.09 222.71,-268.09 161.91,0 192.79,152.64 192.79,223.77 0,13.39 0,21.67 -2.02,29.9l-365.04 0zm-177.49 230.99c-21.65,11.32 -73.19,32.99 -144.39,32.99 -143.28,0 -238.18,-104.13 -238.18,-253.69 0,-156.72 107.25,-263.96 255.77,-263.96 60.8,0 110.33,17.52 129.86,30.91l-17.48 40.23c-24.73,-13.39 -62.92,-28.91 -117.57,-28.91 -132.98,0 -201.1,102.13 -201.1,218.66 0,128.89 81.44,213.44 195.94,213.44 58.78,0 96.87,-16.49 123.75,-27.83l13.39 38.15zm-685.89 -324.82c0,-49.5 -1.98,-101.04 -4.07,-148.52l45.32 0 2.08 100.05 2.08 0c21.66,-61.9 73.2,-111.37 141.28,-111.37 6.18,0 13.46,1.04 19.61,2.03l0 47.44c-7.21,-2.06 -14.45,-2.06 -23.77,-2.06 -68.05,0 -116.52,58.78 -129.87,138.21 -2.08,14.42 -4.13,30.91 -4.13,47.4l0 273.32 -48.54 0 0 -346.49zm-228.97 54.62c1.02,-69.04 -27.84,-174.27 -147.49,-174.27 -109.31,0 -156.68,98.02 -164.98,174.27l312.47 0zm-315.59 39.22c0,158.82 86.66,220.66 188.73,220.66 72.21,0 109.31,-14.45 137.22,-27.83l12.33 39.15c-18.55,10.32 -69.07,32 -155.76,32 -142.23,0 -230.94,-104.13 -230.94,-249.56 0,-165 94.93,-268.09 222.74,-268.09 161.88,0 192.82,152.64 192.82,223.77 0,13.39 0,21.67 -2.08,29.9l-365.05 0zm-464.06 187.66c26.78,16.51 67.05,34.09 111.35,34.09 78.36,0 115.52,-42.34 115.52,-93.88 0,-54.68 -33.04,-83.52 -104.22,-112.43 -81.4,-30.91 -125.77,-75.25 -125.77,-135.07 0,-71.14 55.68,-134.03 152.66,-134.03 45.32,0 83.44,13.39 109.31,30.91l-19.65 40.23c-16.49,-12.35 -48.43,-29.91 -97.93,-29.91 -62.95,0 -95.88,40.22 -95.88,85.59 0,51.57 35.04,74.25 102.06,102.09 80.44,30.95 127.85,71.18 127.85,146.42 0,84.56 -65.98,142.32 -167.06,142.32 -48.44,0 -92.74,-14.43 -125.77,-35.03l17.52 -41.29z"/>
 </g>
</svg>
