<?xml version="1.0" encoding="UTF-8"?><svg xmlns="http://www.w3.org/2000/svg" xmlns:xlink="http://www.w3.org/1999/xlink" viewBox="0 0 32 32" version="1.1"><path d="M18 7l-8 1-6 4h1v10h1V12h2.012c-.11.07.226 2.2.308 2.195l4.446 1.067 3.25-3.672s-.297-1.23-.965-2.13zm4.5 4c-1.57 0-2.992.676-3.996 1.742A2.35 2.35 0 0 0 17 12l-2 2.281c1.23.367 2 1.25 2 2.219V24h3v-7.5c0-1.398 1.102-2.5 2.5-2.5s2.5 1.102 2.5 2.5V24h3v-7.5c0-3.02-2.48-5.5-5.5-5.5zM8.973 15.406C8.949 15.602 9 24 9 24h3l-.004-7.656z" id="surface1"/><metadata><rdf:RDF xmlns:rdf="http://www.w3.org/1999/02/22-rdf-syntax-ns#" xmlns:rdfs="http://www.w3.org/2000/01/rdf-schema#" xmlns:dc="http://purl.org/dc/elements/1.1/"><rdf:Description about="https://iconscout.com/legal#licenses" dc:title="moodle" dc:description="moodle" dc:publisher="Iconscout" dc:date="2017-12-30" dc:format="image/svg+xml" dc:language="en"><dc:creator><rdf:Bag><rdf:li>Icons8</rdf:li></rdf:Bag></dc:creator></rdf:Description></rdf:RDF></metadata></svg>