<?xml version="1.0" encoding="UTF-8"?>
<!DOCTYPE svg PUBLIC "-//W3C//DTD SVG 1.1//EN" "http://www.w3.org/Graphics/SVG/1.1/DTD/svg11.dtd">
<!-- Creator: CorelDRAW 2017 -->
<svg xmlns="http://www.w3.org/2000/svg" xml:space="preserve" width="62.018mm" height="16.1171mm" version="1.1" style="shape-rendering:geometricPrecision; text-rendering:geometricPrecision; image-rendering:optimizeQuality; fill-rule:evenodd; clip-rule:evenodd"
viewBox="0 0 14487.51 3764.98"
 xmlns:xlink="http://www.w3.org/1999/xlink">
 <defs>
  <style type="text/css">
   <![CDATA[
    .fil0 {fill:#362B60}
    .fil1 {fill:#C1001F}
   ]]>
  </style>
 </defs>
 <g id="Warstwa_x0020_1">
  <metadata id="CorelCorpID_0Corel-Layer"/>
  <g id="_2994132652976">
   <path class="fil0" d="M5984.13 2816.84l0 881.78 -516.96 0c-368.2,0 -663.22,-62.3 -884.32,-187.49 -285.81,-158.87 -511.94,-399.27 -677.49,-721.25 -120.23,-234.44 -179.9,-486.62 -179.9,-755.68 0,-295.86 69.71,-571.6 209.31,-827.98 161.37,-293.38 374.88,-516.14 643.04,-667.45 229.51,-127.73 495.05,-191.6 795.18,-191.6l611.15 0 0 891.75 -302.61 0c-216.9,0 -392.59,33.71 -527.1,101.78 -134.48,68.07 -219.38,166.46 -253.81,294.29l1083.52 0 0 788.41 -1083.52 0c20.93,103.44 87.34,194.17 199.17,273.2 106.8,76.55 274.01,116.85 502.71,120.23l381.64 0z"/>
   <path class="fil0" d="M12887.04 3698.59l-1038.94 0 0 -3351.41 1038.94 0 0 1206.13 39.55 0c36.18,1.82 67.25,-9.13 93.28,-31.79 26.86,-26.14 55.48,-85.8 86.62,-177.44l310.11 -996.9 1070.92 0 -374.07 1073.38c-47.89,136.21 -89.98,231.99 -127.73,288.36 -31.07,42.84 -79.03,82.32 -142.89,120.23 160.53,56.27 284.06,121.87 368.95,197.44 74.01,67.25 124.44,151.3 150.46,251.36 21.09,77.39 31.98,174.87 31.98,293.45l0 1127.2 -1038.94 0 0 -950.76c0,-96.66 -2.55,-162.17 -7.57,-196.62 -19.37,-141.26 -115.21,-209.4 -285.79,-204.28l-174.87 0 0 1351.67z"/>
   <path class="fil0" d="M11479.05 2760.5l0 938.14 -1788.78 0c-255.47,0 -441.3,-49.71 -556.44,-148.01 -131.1,-113.48 -196.72,-260.58 -196.72,-442.96 0,-116.85 30.25,-231.15 90.82,-344.63 37.82,-72.28 110.91,-175.69 219.38,-310.2l955.78 -1167.66 -1098.68 0 0 -937.98 1505.54 0c272.29,0 473.18,48.71 603.49,145.37 158.87,115.21 238.65,280.77 238.65,497.67 0,114.23 -26.86,229.51 -81.5,344.63 -39.48,83.16 -110.91,186.58 -214.35,310.13l-931.37 1115.5 1254.18 0z"/>
   <path class="fil0" d="M1777.83 280.79c225.22,0 443.77,44.5 655.65,134.48 211.78,89.1 397.61,215.17 558.99,377.36 165.65,167.28 293.29,362.27 384.18,584.28 84.89,210.97 127.73,427.79 127.73,649.72 0,226.22 -44.57,447.23 -134.48,660.77 -89.17,214.33 -215.17,403.48 -377.43,568.21 -337.06,339.61 -748.11,509.37 -1234,509.37 -487.53,0 -901.89,-168.94 -1244.05,-506.82 -163.92,-163.08 -290.83,-351.38 -380,-565.74 -89.91,-214.35 -134.41,-435.46 -134.41,-663.24 0,-325.27 84.8,-627.87 253.9,-908.71 167.21,-279.04 400.02,-495.05 699.33,-648.08 247.97,-127.73 522.8,-191.6 824.59,-191.6zm-31.98 1022.12c-175.69,0 -329.54,63.87 -460.66,191.6 -142.82,139.6 -214.26,313.56 -214.26,522.08 0,198.35 67.16,368.93 201.65,511.91 135.4,142.89 296.77,214.35 485.89,214.35 187.49,0 345.54,-70.62 475.75,-211.88 132.83,-144.55 199.26,-315.13 199.26,-511.84 0,-203.47 -68.89,-374.95 -206.76,-514.48 -132.03,-134.48 -291.75,-201.74 -480.87,-201.74z"/>
   <path class="fil1" d="M8178.94 0c151.3,0 280.77,53.73 389.13,162.26 111.83,110.12 167.28,243.79 167.28,401.75 0,152.96 -52.91,282.42 -159.62,389.23 -108.53,111.76 -241.31,167.28 -396.8,167.28 -154.69,0 -286.63,-53.8 -396.82,-162.26 -111.73,-110.1 -167.21,-242.95 -167.21,-399.27 0,-157.24 53.75,-289.99 162.19,-396.73 111.83,-108.53 245.49,-162.26 401.84,-162.26zm455.64 3698.62l-921.26 0 0 -2378.91 921.26 0 0 2378.91zm-1780.47 -3698.62c151.3,0 280.77,53.73 389.23,162.26 111.83,110.12 167.28,243.79 167.28,401.75 0,152.96 -52.91,282.42 -159.78,389.23 -108.37,111.76 -241.22,167.28 -396.73,167.28 -154.69,0 -286.63,-53.8 -396.73,-162.26 -111.83,-110.1 -167.28,-242.95 -167.28,-399.27 0,-157.24 53.82,-289.99 162.19,-396.73 111.83,-108.53 245.49,-162.26 401.82,-162.26zm455.64 3698.62l-921.26 0 0 -2378.91 921.26 0 0 2378.91z"/>
  </g>
 </g>
</svg>
