<?xml version="1.0" encoding="UTF-8"?>
<!DOCTYPE svg PUBLIC "-//W3C//DTD SVG 1.1//EN" "http://www.w3.org/Graphics/SVG/1.1/DTD/svg11.dtd">
<!-- Creator: CorelDRAW 2017 -->
<svg xmlns="http://www.w3.org/2000/svg" xml:space="preserve" width="19.2175mm" height="16.2716mm" version="1.1" style="shape-rendering:geometricPrecision; text-rendering:geometricPrecision; image-rendering:optimizeQuality; fill-rule:evenodd; clip-rule:evenodd"
viewBox="0 0 450.01 381.03"
 xmlns:xlink="http://www.w3.org/1999/xlink">
 <defs>
  <style type="text/css">
   <![CDATA[
    .fil0 {fill:#362B60}
    .fil1 {fill:#C1001F}
   ]]>
  </style>
 </defs>
 <g id="Warstwa_x0020_1">
  <metadata id="CorelCorpID_0Corel-Layer"/>
  <path class="fil0" d="M141.6 66.77l-110.05 0c-17.4,0 -31.55,14.36 -31.55,31.76l0 186.58c0,17.4 14.16,31.55 31.55,31.55l107.28 0 0 35.34 94.66 0 0 -35.34 109.38 0c17.4,0 30.71,-14.16 30.71,-31.55l0 -117.44 -0.94 0.22c-2.17,13.41 -6.1,28.37 -17.6,34.31l0 83.48c0,6.8 -5.63,12.44 -12.44,12.44l-311.04 0c-6.8,0 -12.44,-5.63 -12.44,-12.44l0 -187.93c0,-6.8 5.63,-12.44 12.44,-12.44l101.81 0c2.42,-6.27 5.21,-12.54 8.26,-18.53l-0.02 -0.02z"/>
  <path class="fil0" d="M269.22 352l-163.92 0c-14.83,0 -27.46,13.88 -30.47,29.03l224.77 0c-3,-15.15 -15.54,-29.03 -30.37,-29.03z"/>
  <path id="surface1" class="fil1" d="M102.54 0l198.55 24.82 148.92 99.28c-105.73,0 45.73,0 -99.57,0 2.73,1.74 -5.61,54.6 -7.64,54.48l-110.35 26.48 -80.66 -91.14c0,0 7.37,-30.53 23.95,-52.87l-73.19 -61.05z"/>
 </g>
</svg>
